<svg width="70" height="41" viewBox="0 0 70 41" fill="none" xmlns="http://www.w3.org/2000/svg">
<path d="M57.5 5.5C57.5 4.30653 57.0259 3.16193 56.182 2.31802C55.3381 1.47411 54.1935 1 53 1H41.75L57.5 28" stroke="#D27865" stroke-width="2" stroke-linecap="round" stroke-linejoin="round"/>
<path d="M57.5 39.25C63.7132 39.25 68.75 34.2132 68.75 28C68.75 21.7868 63.7132 16.75 57.5 16.75C51.2868 16.75 46.25 21.7868 46.25 28C46.25 34.2132 51.2868 39.25 57.5 39.25Z" stroke="#D27865" stroke-width="2" stroke-linecap="round" stroke-linejoin="round"/>
<path d="M12.5 39.25C18.7132 39.25 23.75 34.2132 23.75 28C23.75 21.7868 18.7132 16.75 12.5 16.75C6.2868 16.75 1.25 21.7868 1.25 28C1.25 34.2132 6.2868 39.25 12.5 39.25Z" stroke="#D27865" stroke-width="2" stroke-linecap="round" stroke-linejoin="round"/>
<path d="M12.5 1H20.375L36.125 28" stroke="#D27865" stroke-width="2" stroke-linecap="round" stroke-linejoin="round"/>
<path d="M46.837 10H25.6251L12.5 28" stroke="#D27865" stroke-width="2" stroke-linecap="round" stroke-linejoin="round"/>
</svg>
