<svg width="50" height="34" viewBox="0 0 50 34" fill="none" xmlns="http://www.w3.org/2000/svg">
<path d="M1.4375 30.6875V25.5058C1.4375 12.4832 11.8942 1.7327 24.9167 1.68765C28.0179 1.67668 31.0908 2.27804 33.9592 3.45724C36.8275 4.63645 39.4349 6.3703 41.6317 8.55935C43.8285 10.7484 45.5716 13.3496 46.7609 16.2138C47.9503 19.0779 48.5625 22.1487 48.5625 25.25V30.6875C48.5625 31.1682 48.3715 31.6292 48.0316 31.9691C47.6917 32.309 47.2307 32.5 46.75 32.5H3.25C2.7693 32.5 2.30828 32.309 1.96837 31.9691C1.62846 31.6292 1.4375 31.1682 1.4375 30.6875Z" stroke="#D27865" stroke-width="2" stroke-linecap="round" stroke-linejoin="round"/>
<path d="M25 1.6875V8.9375" stroke="#D27865" stroke-width="2" stroke-linecap="round" stroke-linejoin="round"/>
<path d="M2.24023 19.1516L9.2432 21.0281" stroke="#D27865" stroke-width="2" stroke-linecap="round" stroke-linejoin="round"/>
<path d="M47.7598 19.1516L40.7568 21.0281" stroke="#D27865" stroke-width="2" stroke-linecap="round" stroke-linejoin="round"/>
<path d="M19.437 32.5001L34.9306 12.3085" stroke="#D27865" stroke-width="2" stroke-linecap="round" stroke-linejoin="round"/>
</svg>
